<?xml version="1.0" encoding="iso-8859-1"?>
<!-- Generator: Adobe Illustrator 16.0.0, SVG Export Plug-In . SVG Version: 6.00 Build 0)  -->
<!DOCTYPE svg PUBLIC "-//W3C//DTD SVG 1.1//EN" "http://www.w3.org/Graphics/SVG/1.1/DTD/svg11.dtd">
<svg version="1.1" id="Capa_1" xmlns="http://www.w3.org/2000/svg" xmlns:xlink="http://www.w3.org/1999/xlink" x="0px" y="0px"
	 width="611.975px" height="611.975px" viewBox="0 0 611.975 611.975" style="enable-background:new 0 0 611.975 611.975;"
	 xml:space="preserve">
<g>
	<g>
		<path d="M78.675,348.587c-1.4,0-2.7-0.5-3.8-1.6l-73.3-73.3c-2.1-2.1-2.1-5.4,0-7.5c2.1-2.1,5.4-2.1,7.5,0l69.6,69.6l70.8-70.8
			c2.1-2.1,5.4-2.1,7.5,0s2.1,5.4,0,7.5l-74.6,74.5C81.375,348.087,79.975,348.587,78.675,348.587z"/>
		<path d="M343.274,574.688c-97.299,0-187.299-52.9-235-138c-1.4-2.601-0.5-5.8,2-7.2c2.6-1.4,5.8-0.5,7.2,2
			c45.8,81.8,132.3,132.6,225.7,132.6c142.3,0,258.1-115.8,258.1-258.1s-116.1-258.1-258.7-258.1
			c-142.199,0-257.999,115.8-257.999,258.1c0,7.6,0.6,14.5,1.2,21.8l-10.6,0.9l5.3-0.4l-5.3,0.4c-0.6-7.2-1.2-14.7-1.2-22.7
			c0-148.2,120.5-268.7,268.7-268.7c148.5,0,269.3,120.5,269.3,268.7S491.475,574.688,343.274,574.688z"/>
	</g>
</g>
<g>
</g>
<g>
</g>
<g>
</g>
<g>
</g>
<g>
</g>
<g>
</g>
<g>
</g>
<g>
</g>
<g>
</g>
<g>
</g>
<g>
</g>
<g>
</g>
<g>
</g>
<g>
</g>
<g>
</g>
</svg>
